<?xml version="1.0" standalone="no"?>
<!DOCTYPE svg PUBLIC "-//W3C//DTD SVG 20010904//EN"
 "http://www.w3.org/TR/2001/REC-SVG-20010904/DTD/svg10.dtd">
<svg version="1.0" xmlns="http://www.w3.org/2000/svg"
 width="3105.000000pt" height="3105.000000pt" viewBox="0 0 3105.000000 3105.000000"
 preserveAspectRatio="xMidYMid meet">

<g transform="translate(0.000000,3105.000000) scale(0.100000,-0.100000)"
fill="#000000" stroke="none">
<path d="M14985 28684 c-549 -16 -1201 -91 -1720 -199 -120 -25 -160 -34 -255
-55 -19 -4 -73 -17 -120 -30 -47 -12 -148 -37 -225 -57 -77 -19 -153 -39 -170
-44 -16 -5 -70 -20 -120 -34 -252 -71 -574 -179 -860 -287 -115 -44 -244 -92
-285 -108 -114 -42 -459 -197 -755 -340 -269 -129 -661 -350 -867 -489 -24
-16 -155 -100 -293 -186 -328 -207 -497 -328 -930 -669 -216 -169 -333 -266
-455 -377 -460 -415 -452 -407 -710 -674 -209 -216 -561 -619 -720 -826 -25
-32 -92 -118 -150 -192 -58 -74 -150 -196 -205 -272 -55 -75 -105 -142 -111
-149 -5 -6 -31 -42 -56 -81 -26 -38 -81 -119 -123 -180 -188 -269 -285 -431
-285 -474 0 -33 29 -41 90 -26 117 30 206 56 363 108 89 30 196 65 237 77 41
13 107 33 145 45 39 12 90 28 115 35 86 24 195 61 237 81 24 10 46 19 50 19 3
0 29 14 56 32 38 24 67 34 119 39 37 5 96 17 131 29 219 76 433 154 484 176
17 8 38 14 47 14 9 0 39 9 68 20 29 11 62 20 74 20 11 0 24 3 28 7 3 4 44 17
89 29 45 12 114 32 152 44 39 12 126 37 195 55 117 31 186 54 435 141 55 20
116 39 135 44 19 4 62 17 95 28 33 11 92 29 130 40 39 12 129 40 200 63 195
63 247 79 285 89 124 32 431 131 455 146 11 7 45 19 75 27 30 8 75 22 100 30
44 16 141 45 290 88 41 11 102 32 135 44 33 13 69 25 80 28 11 3 79 22 150 42
72 19 155 42 185 50 30 9 109 33 175 54 66 22 154 49 195 61 41 12 107 32 145
45 39 13 90 28 115 35 25 7 97 29 160 50 214 70 253 81 460 136 52 13 139 40
195 58 140 47 202 66 217 66 7 0 51 12 98 26 47 14 103 30 125 36 22 5 117 34
210 64 94 29 204 63 245 74 151 40 297 82 400 115 112 35 184 56 345 100 55
15 163 47 240 71 77 24 232 69 345 100 113 31 228 62 255 70 114 31 227 56
335 74 63 11 153 26 200 34 392 66 1171 71 1700 11 124 -14 270 -30 325 -36
142 -14 237 -25 335 -37 94 -12 226 -24 665 -62 139 -12 305 -30 505 -55 304
-37 559 -67 610 -71 250 -19 352 -31 805 -94 33 -5 106 -13 162 -19 56 -6 146
-18 200 -27 54 -9 134 -19 178 -24 44 -4 116 -12 160 -19 44 -6 145 -18 225
-26 263 -28 434 -52 505 -72 83 -24 139 -36 300 -62 66 -11 149 -25 185 -31
122 -20 159 -29 227 -53 83 -30 198 -56 458 -103 110 -19 292 -53 405 -74 113
-22 252 -46 310 -55 58 -8 127 -20 153 -25 69 -14 157 -13 157 2 0 7 -68 82
-152 168 -83 85 -202 206 -262 268 -61 62 -158 152 -215 200 -123 104 -289
244 -472 403 -137 118 -160 137 -385 317 -71 57 -139 112 -151 122 -12 11 -55
43 -95 72 -40 29 -75 55 -78 58 -6 8 -241 164 -255 169 -5 2 -41 24 -80 49
-279 179 -478 300 -695 425 -454 260 -559 312 -1165 571 -391 168 -572 239
-810 317 -49 16 -99 33 -110 38 -11 5 -74 25 -140 46 -66 20 -129 41 -140 45
-11 4 -38 13 -60 19 -90 24 -222 62 -250 71 -16 5 -57 16 -90 24 -88 20 -259
67 -267 73 -5 2 -32 9 -61 14 -104 20 -143 28 -217 44 -116 26 -162 34 -360
64 -36 5 -114 17 -175 26 -296 44 -339 49 -645 75 -135 11 -297 25 -360 30
-111 11 -1112 20 -1355 14z m-2048 -1190 c-3 -3 -12 -4 -19 -1 -8 3 -5 6 6 6
11 1 17 -2 13 -5z"/>
<path d="M16055 25190 c-115 -4 -217 -9 -225 -13 -8 -3 -64 -11 -125 -18 -237
-24 -272 -28 -340 -38 -38 -5 -124 -21 -190 -36 -66 -14 -133 -28 -150 -31
-16 -4 -84 -21 -150 -39 -66 -18 -174 -47 -241 -64 -67 -17 -217 -61 -335 -97
-208 -64 -293 -90 -334 -101 -11 -3 -76 -23 -145 -45 -116 -37 -315 -98 -385
-118 -16 -5 -70 -20 -120 -34 -162 -45 -380 -108 -400 -116 -42 -18 -246 -80
-260 -80 -8 0 -29 -6 -47 -14 -18 -8 -53 -20 -78 -26 -25 -7 -63 -18 -85 -25
-22 -7 -74 -23 -115 -35 -41 -12 -84 -26 -95 -30 -11 -4 -58 -19 -105 -33 -47
-14 -123 -36 -170 -50 -47 -14 -119 -35 -160 -47 -41 -12 -86 -26 -100 -32
-13 -5 -85 -29 -160 -53 -155 -50 -385 -131 -480 -170 -95 -39 -238 -81 -528
-156 -127 -32 -479 -134 -514 -148 -21 -9 -79 -26 -168 -51 -19 -5 -71 -21
-115 -34 -44 -14 -114 -34 -155 -46 -41 -13 -118 -36 -170 -52 -52 -16 -140
-43 -195 -59 -55 -16 -109 -34 -120 -39 -11 -4 -31 -11 -45 -13 -14 -3 -50
-14 -80 -25 -30 -11 -75 -25 -100 -32 -25 -8 -49 -17 -55 -21 -5 -4 -26 -10
-45 -14 -19 -4 -41 -11 -50 -15 -8 -5 -35 -14 -60 -21 -25 -6 -76 -22 -115
-35 -38 -12 -126 -39 -195 -59 -117 -34 -313 -95 -370 -115 -14 -5 -79 -25
-145 -45 -66 -21 -151 -47 -190 -60 -38 -12 -104 -33 -145 -45 -41 -12 -109
-32 -150 -45 -41 -12 -109 -32 -150 -44 -69 -20 -164 -49 -300 -91 -202 -62
-237 -73 -255 -80 -11 -4 -56 -19 -100 -32 -173 -54 -321 -101 -340 -109 -19
-7 -167 -52 -230 -70 -47 -12 -204 -60 -265 -80 -30 -9 -71 -21 -90 -24 -19
-4 -41 -11 -50 -15 -8 -5 -67 -25 -130 -45 -63 -21 -158 -52 -210 -70 -52 -18
-167 -56 -255 -85 -202 -65 -527 -179 -625 -220 -116 -48 -276 -136 -365 -200
-287 -209 -533 -508 -658 -800 -56 -132 -112 -346 -129 -490 -18 -169 -28
-682 -36 -1910 -7 -1004 -6 -1311 4 -1366 37 -215 221 -269 373 -110 97 104
139 217 151 416 13 191 31 1353 30 1945 0 258 5 566 10 685 10 212 34 406 51
425 5 5 9 18 9 30 0 11 7 38 15 61 84 243 299 515 527 667 156 104 243 147
418 207 52 18 104 36 115 41 22 10 161 54 215 68 19 5 74 21 121 35 47 14 91
26 97 26 7 0 20 4 30 9 9 5 37 14 62 21 25 7 61 18 80 25 19 7 55 18 80 25 25
7 54 16 65 20 11 5 58 20 105 34 214 65 256 78 272 87 10 5 29 9 42 9 14 0 27
4 31 9 3 5 20 13 37 17 18 3 60 15 93 25 33 11 83 26 110 34 245 74 332 100
475 145 91 29 217 69 280 90 120 41 223 72 450 139 74 21 187 55 250 74 63 19
192 59 285 87 94 28 222 67 285 86 63 19 133 40 155 46 22 6 72 21 110 33 72
23 83 26 245 71 52 14 103 30 112 35 10 5 28 9 41 9 13 0 27 3 30 6 11 11 110
43 134 44 12 0 25 5 28 10 3 6 16 10 29 10 12 0 26 4 32 9 5 5 50 21 99 35
137 41 247 75 280 85 17 6 125 37 240 71 116 33 343 104 505 157 162 52 365
118 450 145 85 28 178 58 205 67 107 38 213 71 226 71 16 0 359 102 404 120
17 7 44 16 60 20 128 33 283 78 420 122 33 11 74 24 90 28 17 5 46 13 65 19
19 5 60 17 90 26 30 9 87 25 125 35 39 11 158 47 265 81 107 34 209 65 225 69
60 17 203 59 330 98 72 22 207 61 300 87 268 74 830 250 1025 320 150 55 403
119 527 134 39 5 76 11 81 14 15 10 358 36 627 48 383 16 1091 -4 1280 -37 50
-9 112 -20 139 -25 71 -12 171 -47 251 -87 124 -62 135 -71 336 -287 198 -213
408 -507 459 -644 43 -112 76 -286 100 -521 26 -257 31 -313 40 -435 10 -148
52 -614 76 -845 8 -85 19 -222 24 -305 5 -82 13 -215 19 -295 6 -80 15 -224
21 -320 14 -234 35 -520 95 -1280 14 -173 28 -355 31 -405 6 -109 30 -306 49
-413 28 -162 107 -332 222 -479 116 -149 255 -247 438 -310 191 -65 655 -180
960 -238 77 -14 185 -37 240 -49 55 -13 127 -29 160 -36 33 -6 76 -16 96 -21
20 -5 52 -9 71 -9 19 0 61 -9 94 -21 32 -11 86 -25 119 -30 33 -4 96 -15 140
-24 44 -8 94 -15 110 -15 17 0 59 -9 95 -21 36 -11 92 -24 125 -29 122 -19
434 -82 545 -110 19 -5 55 -13 80 -19 25 -5 97 -21 160 -35 63 -14 149 -32
190 -41 103 -23 305 -40 365 -31 38 6 58 16 86 45 73 72 73 136 2 541 -15 89
-16 96 -52 360 -12 91 -26 194 -31 230 -26 178 -51 372 -70 535 -15 124 -29
232 -45 350 -8 55 -19 138 -25 185 -5 47 -26 202 -45 345 -20 143 -40 296 -46
340 -12 98 -35 243 -60 392 -11 62 -28 179 -39 260 -11 82 -31 225 -45 318
-14 94 -31 206 -36 250 -6 44 -14 109 -19 145 -4 36 -18 146 -29 245 -21 183
-35 289 -52 405 -5 36 -14 99 -19 140 -4 41 -11 91 -14 110 -3 19 -17 107 -31
195 -24 148 -40 234 -52 278 -14 52 -86 -20 -229 -229 -38 -55 -118 -169 -179
-253 -60 -84 -146 -204 -190 -266 -76 -108 -103 -145 -265 -365 -39 -52 -128
-176 -199 -275 -72 -99 -180 -247 -240 -330 -61 -82 -132 -179 -158 -215 -26
-36 -92 -125 -148 -198 -55 -74 -113 -153 -130 -175 -34 -48 -222 -303 -442
-598 -258 -346 -270 -358 -337 -343 -41 9 -188 105 -208 136 -27 41 -32 91
-14 146 12 34 80 136 216 318 110 148 203 274 208 279 5 6 25 36 45 67 20 31
60 90 90 130 30 40 100 141 157 223 104 150 195 276 299 414 80 105 104 138
155 211 25 36 74 106 110 155 36 50 121 168 188 263 110 155 180 250 445 612
42 58 127 168 189 246 132 166 137 175 158 237 37 111 -39 208 -199 257 -91
27 -103 30 -130 30 -16 0 -54 4 -84 10 -31 5 -135 16 -231 25 -96 9 -263 29
-370 45 -277 41 -355 51 -525 65 -82 7 -233 22 -335 34 -281 32 -610 65 -905
91 -240 22 -230 17 -304 158 -62 117 -78 141 -248 381 -117 165 -119 169 -100
188 12 13 31 13 123 4 60 -5 165 -13 234 -16 69 -3 157 -11 195 -16 39 -5 135
-14 215 -19 122 -8 451 -41 910 -91 52 -6 133 -14 180 -19 317 -33 384 -41
455 -50 44 -6 134 -17 199 -26 66 -8 140 -19 165 -25 25 -6 98 -19 161 -30 63
-10 135 -23 160 -28 25 -5 72 -14 105 -20 33 -6 106 -20 162 -31 56 -11 155
-29 219 -40 64 -11 181 -36 258 -54 78 -19 213 -48 301 -66 137 -27 237 -43
530 -89 28 -5 79 -18 114 -30 35 -11 74 -21 87 -21 14 0 59 -9 102 -21 42 -11
95 -24 117 -29 22 -4 76 -17 120 -28 44 -11 136 -29 205 -41 69 -12 163 -34
210 -48 47 -14 119 -34 160 -43 41 -10 102 -25 135 -35 33 -9 103 -28 155 -42
107 -28 330 -100 405 -131 28 -11 104 -41 170 -68 141 -56 480 -218 568 -271
124 -74 294 -187 384 -255 107 -81 268 -244 336 -342 117 -167 204 -389 256
-656 11 -58 32 -163 46 -235 14 -71 34 -182 44 -245 11 -63 40 -225 65 -360
25 -135 51 -272 57 -305 6 -33 21 -112 34 -175 13 -63 34 -171 45 -240 12 -69
32 -183 46 -255 29 -160 99 -576 125 -745 10 -69 25 -170 34 -225 8 -55 20
-131 26 -170 5 -38 14 -89 19 -113 6 -23 10 -55 10 -71 0 -16 7 -62 15 -102 9
-41 20 -99 26 -129 50 -273 92 -363 198 -431 39 -25 55 -29 116 -29 61 0 77 4
116 28 56 36 105 97 126 157 22 67 13 164 -46 468 -23 116 -31 171 -31 200 0
17 -4 44 -9 61 -5 17 -15 65 -21 106 -21 127 -34 204 -64 375 -9 50 -21 119
-26 155 -15 99 -72 423 -115 655 -8 44 -28 159 -45 255 -17 96 -40 222 -50
280 -40 218 -59 326 -65 360 -17 111 -107 619 -134 760 -99 518 -180 725 -388
986 -189 239 -357 404 -643 634 -58 47 -132 103 -165 126 -391 268 -496 327
-770 439 -77 31 -153 63 -170 70 -16 7 -70 27 -120 43 -49 17 -124 43 -165 57
-158 56 -365 119 -535 161 -33 8 -76 19 -95 24 -19 5 -60 14 -90 21 -30 6 -71
16 -90 21 -19 6 -57 14 -85 19 -87 15 -148 26 -225 44 -79 18 -146 30 -245 44
-33 5 -91 17 -130 26 -38 9 -99 21 -135 26 -115 18 -163 27 -245 44 -89 18
-160 30 -250 44 -138 21 -386 64 -475 81 -25 5 -101 16 -170 25 -69 9 -161 23
-205 31 -44 8 -187 30 -317 49 -130 19 -269 41 -310 49 -86 17 -236 40 -363
56 -101 13 -215 29 -660 96 -421 62 -472 69 -745 99 -207 22 -553 64 -635 76
-76 11 -338 46 -450 60 -38 5 -122 16 -185 24 -63 9 -164 20 -225 25 -60 5
-166 14 -235 20 -69 6 -186 15 -260 20 -74 5 -171 13 -215 19 -105 13 -803 20
-1070 11z"/>
<path d="M14345 23624 c-120 -16 -316 -70 -750 -208 -110 -35 -240 -76 -290
-91 -49 -14 -160 -48 -245 -75 -85 -26 -202 -62 -260 -80 -58 -17 -152 -47
-210 -65 -58 -19 -224 -68 -370 -110 -812 -233 -1244 -368 -1350 -421 -168
-84 -265 -233 -307 -472 -16 -90 -17 -229 -15 -1912 2 -1093 7 -1848 13 -1898
14 -117 41 -182 104 -250 59 -64 119 -101 210 -129 50 -15 93 -18 255 -18 107
1 236 7 285 14 50 6 140 19 200 27 172 22 248 33 410 59 366 59 995 142 1630
215 50 6 115 15 146 20 30 6 72 10 92 10 20 0 56 4 79 10 24 5 70 14 103 19
120 21 155 31 192 54 21 13 91 49 155 80 178 87 251 167 294 325 31 115 35
401 31 2347 -4 1714 -6 1944 -20 2052 -22 163 -51 294 -80 357 -24 52 -80 106
-128 124 -30 12 -134 21 -174 16z"/>
<path d="M16860 23159 c-85 -10 -188 -31 -340 -70 -47 -11 -105 -25 -130 -30
-178 -35 -377 -98 -455 -144 -71 -41 -145 -106 -170 -149 -55 -94 -66 -148
-75 -361 -13 -307 -12 -3521 1 -3608 30 -201 109 -350 211 -401 68 -34 126
-34 418 0 785 90 914 123 998 249 17 26 39 73 49 104 17 53 18 161 16 2094
l-2 2038 -29 63 c-84 180 -237 247 -492 215z"/>
<path d="M23074 22953 c-85 -11 -90 -78 -33 -455 5 -32 13 -84 18 -115 5 -32
16 -92 26 -133 27 -121 54 -277 70 -400 17 -131 40 -284 62 -415 8 -49 21
-130 28 -180 7 -49 22 -146 33 -215 28 -175 59 -392 78 -545 8 -71 27 -206 40
-300 14 -93 33 -233 44 -310 10 -77 35 -250 54 -385 19 -135 40 -292 46 -350
10 -101 29 -246 70 -545 10 -77 30 -223 44 -325 14 -102 37 -286 51 -410 65
-568 92 -683 174 -753 64 -54 113 -61 386 -62 138 0 358 6 490 12 132 7 375
18 540 23 332 12 604 32 749 55 136 22 332 73 396 103 119 55 229 206 252 344
12 74 1 244 -27 418 -8 52 -19 122 -24 155 -6 33 -17 101 -26 150 -9 50 -20
119 -26 155 -6 36 -15 84 -20 107 -5 22 -13 70 -18 105 -6 34 -26 155 -45 268
-19 113 -49 284 -65 380 -17 96 -42 238 -56 315 -45 237 -154 892 -221 1320
-69 439 -115 671 -166 820 -135 402 -287 514 -938 695 -41 12 -88 25 -105 29
-16 5 -151 41 -300 80 -148 39 -319 84 -380 101 -60 16 -166 43 -235 60 -69
16 -221 54 -337 85 -218 56 -409 98 -498 110 -27 3 -61 7 -75 9 -14 2 -39 1
-56 -1z"/>
<path d="M9615 22213 c-90 -14 -254 -60 -510 -143 -88 -28 -185 -58 -215 -66
-30 -9 -100 -31 -155 -49 -111 -37 -382 -121 -520 -160 -49 -14 -133 -39 -185
-54 -52 -16 -169 -50 -260 -76 -305 -88 -495 -146 -565 -172 -191 -73 -320
-204 -372 -380 -16 -54 -18 -174 -21 -1598 -2 -1001 1 -1584 7 -1667 22 -264
110 -385 297 -405 105 -12 461 5 614 29 74 11 167 25 205 29 39 5 99 12 135
18 36 5 124 16 195 25 72 8 164 20 205 26 41 6 109 15 150 19 100 12 389 49
470 61 36 5 119 17 185 26 176 24 256 47 380 111 131 67 234 162 285 263 53
104 51 45 56 1505 2 748 1 1601 -4 1895 -7 522 -8 536 -30 584 -55 122 -210
201 -347 179z"/>
<path d="M5935 21104 c-16 -3 -50 -11 -75 -18 -25 -8 -63 -18 -85 -24 -77 -20
-121 -32 -210 -57 -49 -14 -108 -31 -130 -37 -22 -6 -53 -15 -70 -20 -127 -37
-315 -91 -340 -97 -40 -10 -158 -46 -274 -83 -297 -96 -426 -238 -502 -553
l-32 -130 2 -1318 c2 -1344 3 -1374 38 -1487 27 -84 107 -175 186 -211 34 -15
65 -19 157 -18 63 0 149 4 190 9 41 6 136 17 210 25 310 36 549 73 665 106
241 67 481 181 542 257 17 21 43 71 59 112 l29 75 0 1605 c0 1532 -1 1607 -18
1658 -24 67 -85 144 -141 177 -44 26 -134 39 -201 29z"/>
<path d="M18026 18302 c-23 -38 -26 -241 -26 -2172 0 -2081 3 -2672 15 -2702
11 -28 54 -35 170 -27 61 4 236 4 390 1 154 -3 1167 -6 2250 -7 1084 0 2944
-2 4135 -4 2252 -4 2228 -4 2261 35 6 7 15 46 20 86 7 54 16 3264 10 3461 -2
44 -23 31 -73 -46 -73 -112 -200 -250 -278 -301 -19 -13 -57 -42 -85 -65 -27
-22 -55 -41 -61 -41 -6 0 -17 -7 -24 -15 -19 -23 -177 -100 -264 -129 -89 -30
-214 -60 -316 -76 -41 -6 -122 -19 -180 -30 -261 -46 -403 -60 -960 -95 -386
-24 -956 -18 -1360 15 -69 5 -195 15 -280 21 -141 10 -551 55 -855 94 -111 15
-278 42 -400 65 -86 17 -293 58 -455 90 -143 29 -468 104 -585 135 -27 8 -97
25 -155 40 -134 33 -179 45 -210 56 -14 4 -86 26 -160 49 -74 23 -160 50 -190
60 -75 25 -279 90 -425 135 -66 20 -129 41 -140 45 -11 5 -43 16 -72 24 -86
24 -332 134 -563 251 -75 39 -403 257 -443 296 -8 8 -54 48 -101 89 -109 94
-215 214 -366 417 -165 220 -209 269 -224 245z m1839 -2553 c205 -53 330 -137
476 -317 72 -90 122 -193 143 -296 19 -92 21 -273 4 -348 -6 -29 -11 -56 -10
-61 4 -15 -71 -223 -103 -287 -37 -71 -123 -167 -198 -218 -139 -96 -277 -128
-513 -118 -149 6 -192 15 -302 67 -115 53 -252 210 -349 399 -18 35 -33 70
-33 77 0 7 -4 21 -9 31 -32 62 -66 270 -56 351 7 66 30 154 51 194 8 16 14 35
14 43 0 14 35 85 63 128 6 11 26 43 43 70 78 127 230 243 368 283 115 33 285
34 411 2z m6777 -530 c203 -44 360 -198 438 -429 30 -91 39 -295 17 -402 -33
-156 -110 -270 -249 -368 -102 -72 -152 -84 -339 -85 l-155 0 -83 50 c-147 88
-238 214 -280 388 -18 74 -21 107 -16 210 3 67 9 145 13 172 17 105 108 257
211 353 76 71 117 88 261 107 129 17 122 16 182 4z m-4352 -300 c325 -20 1100
-29 1966 -22 l882 6 25 -25 c23 -23 25 -29 16 -69 -6 -24 -29 -75 -52 -112
-23 -38 -52 -85 -63 -104 -35 -58 -93 -122 -135 -150 -37 -24 -49 -26 -211
-33 -134 -7 -1713 -23 -2309 -25 -89 0 -99 2 -140 29 -51 34 -103 84 -145 141
-16 22 -32 42 -35 45 -29 25 -125 206 -133 253 -6 31 -3 41 19 63 24 24 30 25
88 20 34 -4 136 -11 227 -17z"/>
<path d="M14595 17240 c-280 -11 -547 -34 -700 -60 -27 -5 -84 -12 -125 -15
-41 -4 -127 -13 -190 -22 -63 -8 -149 -19 -190 -24 -41 -5 -100 -13 -130 -18
-56 -9 -137 -21 -430 -65 -352 -53 -430 -64 -690 -96 -85 -11 -204 -27 -265
-35 -60 -9 -144 -20 -185 -25 -95 -12 -266 -35 -580 -80 -167 -24 -292 -41
-370 -51 -142 -17 -220 -28 -330 -44 -58 -8 -139 -19 -180 -24 -163 -21 -1002
-141 -1115 -160 -66 -12 -214 -32 -330 -46 -238 -28 -230 -27 -384 -55 -159
-28 -325 -50 -467 -60 -67 -5 -191 -18 -275 -30 -219 -29 -286 -37 -444 -55
-77 -9 -165 -20 -195 -25 -136 -22 -527 -69 -660 -79 -69 -6 -188 -19 -265
-29 -77 -11 -192 -26 -255 -32 -63 -7 -158 -19 -210 -26 -52 -8 -133 -19 -180
-25 -47 -5 -92 -12 -100 -14 -8 -3 -82 -13 -165 -24 -82 -11 -193 -27 -245
-35 -52 -8 -140 -20 -195 -26 -55 -6 -138 -15 -185 -21 -47 -5 -157 -15 -246
-23 -169 -15 -365 -40 -450 -57 -79 -15 -105 -51 -123 -169 -25 -165 -31 -376
-31 -1065 0 -664 2 -730 20 -846 20 -129 35 -180 78 -257 25 -45 48 -62 81
-62 15 0 25 14 40 55 12 31 21 66 21 78 0 12 11 56 23 97 13 41 29 100 36 130
12 57 37 139 95 320 42 128 63 182 110 283 20 42 36 80 36 82 0 13 176 273
222 329 66 80 252 268 325 329 32 26 87 68 123 92 198 134 310 182 545 232
123 26 144 27 395 28 272 0 264 1 449 -45 86 -21 263 -117 431 -234 150 -103
369 -330 489 -506 156 -228 233 -424 331 -846 5 -22 16 -94 25 -160 8 -65 20
-155 26 -199 6 -44 17 -89 25 -100 15 -20 27 -20 2162 -20 1181 -1 2168 -4
2194 -8 59 -10 115 11 122 45 10 44 35 193 46 273 6 44 17 103 25 130 7 28 25
101 40 164 42 180 103 374 146 466 10 22 37 87 60 145 55 139 136 298 202 395
57 85 166 222 235 297 134 145 330 333 396 377 12 8 44 33 71 56 151 124 361
228 655 325 244 80 442 110 738 110 325 0 615 -58 865 -174 43 -20 81 -36 84
-36 9 0 194 -111 238 -142 133 -95 220 -161 223 -169 2 -5 29 -27 60 -48 134
-92 323 -324 493 -606 39 -66 85 -140 101 -165 73 -112 176 -358 237 -565 11
-38 35 -117 52 -175 39 -133 41 -137 83 -300 19 -74 47 -166 61 -205 15 -38
34 -92 43 -118 17 -52 52 -97 74 -97 44 1 43 -20 40 682 -3 676 -14 1116 -33
1268 -11 84 -55 276 -68 295 -4 6 -15 35 -25 65 -11 30 -22 60 -26 65 -4 6
-32 57 -62 115 -72 136 -162 273 -233 354 -11 13 -46 54 -77 92 -52 63 -171
181 -229 228 -36 28 -222 189 -234 202 -29 30 -181 131 -248 165 -23 12 -49
27 -57 33 -8 7 -53 30 -100 51 -158 71 -259 101 -495 151 -93 20 -186 40 -205
44 -220 52 -382 63 -695 50z"/>
<path d="M14590 15359 c-182 -9 -221 -16 -374 -73 -261 -98 -552 -328 -753
-596 -139 -186 -198 -308 -325 -680 -105 -307 -142 -464 -183 -770 -17 -134
-21 -605 -5 -709 33 -213 56 -317 100 -456 169 -527 310 -778 601 -1076 229
-233 438 -384 657 -474 20 -9 45 -20 54 -25 10 -6 27 -10 37 -10 11 0 23 -4
26 -10 3 -5 19 -10 34 -10 15 0 31 -4 37 -8 5 -5 45 -16 89 -26 44 -10 96 -22
115 -26 76 -19 156 -23 450 -23 331 0 431 9 605 58 33 10 74 20 90 22 17 3 35
9 40 13 6 3 33 14 60 24 206 72 544 273 740 441 99 84 265 256 339 350 135
172 296 429 296 471 0 7 8 17 18 22 20 11 3508 28 3542 17 14 -5 31 -29 51
-72 52 -116 240 -390 415 -603 285 -348 572 -523 1030 -629 112 -26 323 -51
424 -51 223 1 600 78 778 161 24 11 62 27 85 36 158 63 431 257 578 410 159
165 316 398 425 628 24 52 50 97 56 102 7 4 339 11 738 14 714 5 726 6 792 27
116 39 234 154 278 273 18 48 21 74 18 161 -3 93 -6 110 -36 171 -60 121 -179
214 -297 232 -27 4 -2138 8 -4690 9 -4482 3 -4643 3 -4690 21 -167 62 -311
240 -368 455 -14 52 -42 175 -62 272 -38 190 -92 389 -156 583 -41 123 -173
405 -236 504 -66 104 -171 236 -240 301 -37 35 -106 100 -153 145 -162 154
-280 240 -415 302 -81 37 -223 83 -258 83 -13 0 -37 4 -53 9 -45 15 -146 18
-304 10z m202 -1320 c64 -13 167 -49 174 -60 3 -5 12 -9 20 -9 22 0 193 -109
243 -155 90 -82 230 -327 285 -500 64 -200 103 -473 91 -635 -25 -326 -69
-511 -175 -727 -67 -139 -119 -206 -209 -275 -79 -60 -226 -132 -299 -147
-185 -38 -388 12 -593 144 -101 66 -165 135 -228 249 -232 420 -298 832 -211
1327 36 203 185 507 303 616 137 127 422 208 599 172z"/>
<path d="M5615 14726 c-170 -28 -286 -72 -406 -152 -257 -173 -516 -576 -628
-976 -70 -251 -117 -612 -108 -823 18 -381 107 -706 272 -990 170 -292 350
-484 566 -603 166 -90 241 -103 641 -109 595 -9 761 24 1036 210 130 87 403
354 453 442 17 30 40 60 50 66 12 6 732 11 2101 14 1146 3 2175 7 2288 10 221
6 331 22 364 54 25 26 26 88 2 171 -30 106 -88 293 -96 315 -8 21 -48 153 -75
247 -9 31 -23 62 -31 69 -11 9 -397 11 -1792 10 -977 -1 -1869 -6 -1982 -11
-419 -19 -887 -7 -1000 26 -30 9 -68 25 -85 37 -41 28 -123 114 -149 157 -34
54 -76 158 -76 187 0 15 -4 40 -9 57 -13 45 -41 234 -41 280 0 21 -4 55 -9 75
-5 20 -15 63 -21 96 -30 152 -83 268 -225 490 -17 28 -58 97 -90 155 -32 58
-69 125 -83 149 -31 56 -132 156 -207 206 -179 118 -449 176 -660 141z m267
-1055 c240 -107 398 -433 398 -823 0 -108 -23 -285 -41 -319 -5 -10 -9 -27 -9
-38 0 -12 -4 -29 -9 -39 -5 -9 -23 -48 -41 -87 -67 -145 -142 -230 -250 -283
-50 -25 -65 -27 -170 -27 -106 0 -119 2 -166 27 -71 37 -155 117 -209 198 -25
37 -45 73 -45 79 0 6 -8 25 -18 43 -113 201 -135 608 -47 888 57 185 196 338
349 386 66 20 205 18 258 -5z"/>
<path d="M9442 10980 c-219 -4 -264 -8 -272 -20 -5 -8 -10 -18 -10 -22 0 -11
28 -38 75 -73 22 -17 46 -35 53 -42 18 -17 167 -109 392 -241 237 -139 242
-142 327 -188 37 -20 115 -63 173 -94 251 -138 772 -383 1075 -507 88 -35 169
-68 180 -73 42 -18 375 -132 440 -150 73 -21 453 -133 560 -165 44 -13 130
-35 190 -50 61 -14 126 -29 145 -34 104 -26 181 -46 235 -58 74 -17 426 -87
515 -102 384 -66 477 -81 550 -90 478 -60 1019 -88 1540 -77 533 10 695 16
850 31 80 8 206 20 280 26 74 6 178 17 230 25 52 8 115 17 140 20 46 6 268 46
350 63 371 80 621 134 645 142 17 5 80 20 140 34 106 24 220 53 315 80 25 7
63 17 85 23 182 49 428 119 515 148 58 19 121 39 140 45 19 6 44 14 55 19 11
5 54 21 95 36 41 15 100 38 130 51 30 13 64 28 75 33 11 4 43 18 70 30 28 12
66 29 85 37 36 16 123 57 465 221 270 129 411 211 534 311 74 59 111 100 111
123 0 36 -398 425 -480 468 -34 18 -2639 20 -2682 2 -16 -6 -46 -40 -73 -81
-107 -162 -429 -489 -673 -683 -68 -54 -170 -128 -176 -128 -3 0 -29 -15 -58
-33 -69 -44 -124 -65 -228 -88 -81 -18 -148 -19 -1346 -19 -1280 0 -1375 2
-1474 37 -45 16 -202 120 -250 165 -14 13 -63 55 -110 95 -116 97 -399 391
-620 643 -95 110 -21 102 -934 106 -1611 8 -2117 9 -2374 4z"/>
<path d="M16030 7370 c-273 -76 -348 -159 -509 -568 -42 -105 -112 -272 -141
-337 -45 -99 -92 -200 -150 -320 -140 -293 -173 -363 -197 -415 -14 -30 -34
-72 -44 -93 -10 -22 -19 -43 -19 -47 0 -5 -13 -37 -29 -72 -50 -110 -68 -151
-116 -263 -25 -61 -52 -123 -59 -140 -8 -16 -35 -79 -61 -140 -68 -158 -137
-309 -217 -475 -39 -79 -78 -165 -88 -190 -10 -25 -43 -99 -74 -165 -55 -116
-66 -140 -85 -187 -5 -13 -21 -50 -36 -82 -68 -150 -95 -220 -95 -251 0 -12
-5 -26 -11 -32 -17 -17 -1 -126 28 -193 20 -44 67 -113 99 -145 143 -143 501
-150 716 -12 104 66 183 184 350 522 51 105 101 209 110 232 10 27 25 46 40
52 31 11 1585 22 1614 10 18 -6 49 -61 128 -223 130 -267 214 -421 268 -492
52 -69 151 -141 227 -165 138 -42 385 -45 500 -4 142 50 274 162 349 297 62
110 126 260 184 433 27 83 66 179 86 215 20 36 57 110 83 165 55 121 66 145
139 309 22 50 65 156 235 586 54 135 107 268 120 295 12 28 43 112 69 187 27
80 80 205 128 300 46 90 98 197 117 238 19 41 55 120 81 175 25 55 52 116 60
135 7 19 17 39 22 44 4 6 8 16 8 23 0 7 11 36 24 65 13 29 29 69 36 88 7 19
18 49 25 65 7 17 19 64 25 106 10 64 10 84 -4 140 -25 96 -54 148 -118 212
-91 92 -139 108 -331 115 -168 5 -227 -4 -323 -50 -92 -44 -163 -146 -267
-388 -8 -19 -68 -168 -132 -330 -103 -260 -140 -351 -190 -465 -7 -16 -31 -79
-55 -140 -23 -60 -63 -162 -90 -225 -26 -63 -71 -171 -100 -240 -29 -69 -64
-150 -77 -180 -14 -30 -33 -76 -43 -101 -20 -49 -43 -102 -90 -205 -16 -34
-43 -97 -61 -140 -17 -44 -35 -83 -39 -89 -3 -5 -12 -30 -19 -55 -30 -101 -44
-130 -62 -130 -21 0 -49 36 -49 62 0 10 -4 26 -9 36 -8 15 -21 45 -51 117 -4
11 -25 56 -45 100 -21 44 -41 89 -46 100 -4 11 -35 78 -68 149 -34 71 -61 132
-61 136 0 4 -15 36 -33 71 -18 35 -41 84 -52 109 -27 64 -70 158 -170 370 -88
186 -185 407 -245 555 -18 44 -43 104 -56 133 -13 29 -24 55 -24 57 0 3 -9 27
-21 53 -12 26 -26 58 -31 72 -6 14 -16 39 -23 55 -7 17 -17 41 -23 55 -13 32
-49 114 -70 160 -33 74 -95 161 -148 209 -64 58 -192 124 -285 146 -93 22
-343 19 -429 -5z m258 -1572 c6 -13 27 -59 47 -103 20 -44 95 -196 166 -338
71 -143 129 -267 129 -277 0 -11 -4 -22 -10 -25 -5 -3 -163 -9 -350 -12 -375
-5 -376 -5 -364 51 4 17 10 37 14 46 40 75 319 649 324 663 8 24 31 21 44 -5z"/>
<path d="M21695 7380 c-106 -10 -153 -23 -255 -72 -67 -33 -102 -58 -165 -122
-70 -71 -88 -97 -142 -208 -35 -70 -63 -133 -63 -141 0 -7 -4 -17 -9 -22 -4
-6 -23 -46 -41 -90 -17 -44 -45 -108 -61 -143 -16 -35 -29 -65 -29 -68 0 -2
-9 -23 -19 -47 -47 -102 -127 -290 -161 -377 -80 -203 -212 -502 -292 -660
-78 -154 -138 -280 -203 -425 -15 -33 -45 -97 -66 -142 -22 -45 -39 -84 -39
-87 0 -3 -20 -48 -45 -100 -25 -53 -45 -98 -45 -100 0 -3 -16 -39 -35 -80 -19
-42 -35 -80 -35 -85 0 -5 -13 -38 -29 -73 -50 -109 -151 -346 -151 -353 0 -4
-31 -73 -69 -154 -39 -82 -74 -174 -81 -209 -25 -125 8 -247 91 -337 80 -87
164 -120 329 -131 198 -13 354 34 468 140 66 61 166 202 204 286 11 25 35 77
53 115 98 210 122 264 135 303 7 24 21 47 29 51 9 5 365 11 791 14 606 5 781
3 800 -6 14 -7 34 -31 45 -53 11 -23 78 -163 149 -311 138 -291 193 -379 281
-445 70 -53 141 -77 268 -90 124 -13 260 -1 351 31 91 32 194 119 252 211 25
41 28 54 28 137 0 77 -5 102 -28 160 -15 37 -32 77 -36 88 -14 35 -42 99 -61
139 -11 22 -19 43 -19 48 0 4 -20 49 -44 100 -103 217 -136 289 -136 293 0 3
-22 52 -50 110 -27 58 -72 151 -99 208 -27 57 -63 132 -79 168 -16 35 -66 141
-110 234 -172 367 -172 367 -365 805 -53 118 -121 271 -152 340 -139 309 -217
485 -274 620 -84 199 -135 284 -218 359 -72 65 -186 127 -283 155 -67 19 -177
25 -285 16z m150 -1648 c11 -32 22 -64 26 -72 4 -8 20 -44 37 -80 33 -73 145
-308 199 -417 56 -117 82 -108 -319 -111 -329 -2 -347 -1 -352 16 -8 25 97
281 185 451 39 75 89 172 111 216 22 44 45 83 52 87 16 10 39 -24 61 -90z"/>
<path d="M24986 7375 c-117 -19 -183 -51 -262 -127 -74 -71 -117 -149 -133
-243 -16 -97 -27 -3415 -11 -3502 42 -230 225 -362 505 -362 85 -1 214 21 284
48 106 40 213 130 253 212 37 77 38 114 34 1017 -3 726 -2 884 9 888 22 9 51
-13 91 -68 21 -29 66 -87 99 -128 34 -41 124 -158 201 -259 267 -353 391 -515
464 -605 19 -24 109 -142 199 -262 91 -121 196 -261 235 -313 39 -51 80 -106
91 -120 239 -318 380 -407 645 -405 133 0 210 17 317 70 86 42 160 110 200
185 l28 54 6 1740 c3 957 1 1769 -3 1805 -10 80 -57 182 -106 234 -44 45 -192
121 -254 130 -438 63 -649 -81 -709 -484 -9 -66 -11 -259 -5 -875 4 -434 7
-799 7 -809 0 -28 -17 -41 -40 -30 -18 9 -101 107 -101 120 0 3 -16 24 -35 47
-19 22 -35 46 -35 53 0 7 -4 14 -8 16 -5 2 -27 28 -49 58 -23 30 -71 93 -108
140 -36 47 -73 96 -83 110 -9 14 -43 59 -74 100 -174 228 -249 324 -304 386
-76 87 -159 196 -181 237 -62 123 -406 609 -502 710 -92 98 -237 192 -341 220
-84 23 -222 28 -324 12z"/>
<path d="M3145 7352 c-90 -22 -124 -41 -186 -103 -60 -60 -85 -104 -107 -189
-20 -77 -31 -3481 -11 -3575 18 -90 55 -158 113 -213 124 -117 288 -154 521
-117 50 7 104 18 120 23 107 33 233 134 274 219 12 26 26 56 32 65 5 10 9 193
9 432 0 372 2 415 17 427 12 11 63 15 203 17 174 4 189 2 232 -18 50 -23 262
-249 573 -609 256 -297 417 -446 550 -507 107 -49 378 -73 520 -46 82 16 199
76 240 125 62 72 79 121 79 227 1 91 -1 99 -38 173 -52 105 -147 229 -291 377
-66 69 -139 150 -162 180 -44 57 -66 85 -194 242 -81 100 -99 128 -99 152 0 8
45 45 99 81 88 57 119 87 259 245 128 144 169 197 205 267 114 224 160 472
137 753 -16 198 -32 255 -128 470 -81 181 -221 393 -309 471 -136 119 -193
165 -260 211 -90 60 -237 138 -262 138 -9 0 -21 4 -27 9 -24 22 -132 47 -325
75 -155 23 -1692 21 -1784 -2z m1722 -1041 c72 -22 91 -34 158 -101 87 -85
165 -271 165 -393 0 -24 -8 -66 -17 -93 -22 -67 -97 -191 -139 -232 -39 -38
-127 -81 -194 -96 -25 -5 -238 -11 -475 -13 -404 -3 -431 -2 -441 14 -12 21
-3 900 10 921 5 9 113 12 439 12 394 0 437 -2 494 -19z"/>
<path d="M8875 7359 c-99 -4 -210 -12 -247 -18 -388 -64 -698 -195 -977 -413
-261 -204 -355 -315 -526 -623 -171 -307 -220 -440 -275 -762 -18 -108 -20
-151 -17 -360 5 -229 13 -322 36 -408 6 -22 16 -58 22 -80 6 -22 15 -49 19
-60 102 -264 228 -484 398 -699 73 -93 237 -254 333 -327 98 -75 254 -174 349
-224 41 -21 86 -45 100 -52 14 -7 28 -13 33 -13 4 0 26 -9 50 -19 94 -43 250
-87 415 -118 115 -21 519 -24 642 -4 301 48 637 176 846 322 265 185 357 270
556 518 56 70 180 267 220 351 68 141 88 189 88 209 0 11 4 22 9 25 5 3 11 18
14 33 3 16 13 53 22 83 43 141 59 279 59 510 0 240 -20 422 -59 550 -9 30 -19
67 -22 83 -3 15 -9 30 -14 33 -5 3 -9 16 -9 29 0 13 -4 26 -9 29 -5 3 -12 18
-15 32 -7 26 -38 101 -57 137 -5 10 -29 54 -52 98 -43 84 -45 87 -87 154 -34
55 -151 205 -230 293 -95 108 -318 296 -443 375 -89 57 -274 151 -357 181 -41
15 -84 31 -95 36 -11 5 -29 11 -40 13 -11 3 -45 13 -75 22 -192 55 -355 72
-605 64z m171 -1039 c200 -35 278 -65 424 -163 189 -127 331 -310 435 -562 66
-162 80 -399 33 -580 -52 -203 -168 -417 -304 -565 -174 -188 -606 -286 -929
-212 -56 13 -202 70 -255 100 -146 83 -297 231 -363 357 -43 82 -106 225 -117
265 -7 25 -19 66 -27 91 -16 55 -13 391 5 474 45 210 165 420 305 537 241 201
548 300 793 258z"/>
<path d="M11915 7360 c-364 -10 -435 -22 -536 -91 -64 -43 -136 -123 -169
-186 -58 -112 -66 -315 -17 -433 48 -117 100 -187 182 -245 121 -85 183 -95
571 -95 175 0 313 -4 323 -10 16 -8 19 -35 27 -272 5 -145 8 -454 8 -688 -1
-234 -2 -738 -4 -1120 -1 -466 2 -712 9 -748 26 -126 100 -224 205 -272 161
-73 441 -63 610 22 73 37 166 123 194 181 44 91 45 108 37 887 -7 776 2 1979
16 2002 6 10 78 14 326 19 175 4 345 12 378 17 203 36 270 61 347 130 91 82
151 193 173 317 23 127 -24 288 -111 385 -80 88 -172 141 -311 177 l-98 26
-940 2 c-517 1 -1066 -1 -1220 -5z"/>
</g>
</svg>
